<?xml version="1.0" standalone="no"?>
<!DOCTYPE svg PUBLIC "-//W3C//DTD SVG 20010904//EN"
 "http://www.w3.org/TR/2001/REC-SVG-20010904/DTD/svg10.dtd">
<svg version="1.0" xmlns="http://www.w3.org/2000/svg"
 width="658.000000pt" height="162.000000pt" viewBox="0 0 658.000000 162.000000"
 preserveAspectRatio="xMidYMid meet">

<g transform="translate(0.000000,162.000000) scale(0.100000,-0.100000)"
fill="#000000" stroke="none">
<path d="M0 810 l0 -810 3290 0 3290 0 0 810 0 810 -3290 0 -3290 0 0 -810z
m1358 -47 c-2 -442 -6 -567 -15 -571 -10 -3 -13 115 -13 567 0 502 2 571 15
571 13 0 15 -67 13 -567z m-744 79 l181 -313 3 316 c2 307 3 315 22 315 20 0
20 -8 20 -360 l0 -360 -187 2 c-159 3 -188 5 -188 18 0 13 25 15 153 18 90 1
152 6 150 12 -2 5 -77 138 -168 294 l-165 285 -5 -312 c-5 -287 -6 -312 -22
-315 -17 -3 -18 19 -18 358 l0 361 22 -3 c16 -2 62 -73 202 -316z m1677 168
c22 -12 26 -59 7 -78 -7 -7 -28 -12 -48 -12 -43 0 -60 14 -60 52 0 42 54 62
101 38z m201 -163 l3 -158 60 85 60 85 48 1 c26 0 47 -3 47 -7 0 -5 -27 -41
-60 -81 -33 -41 -60 -76 -60 -79 0 -5 49 -92 110 -195 l22 -38 -56 0 -55 0
-60 108 -61 107 0 -107 0 -108 -50 0 -50 0 2 273 3 272 40 5 c22 3 43 3 47 0
4 -3 9 -77 10 -163z m2240 156 c37 -34 11 -83 -45 -83 -55 0 -79 35 -52 76 19
29 69 32 97 7z m1510 0 c38 -34 11 -83 -47 -83 -36 0 -65 21 -65 47 0 46 74
70 112 36z m-4312 -185 l95 -162 5 160 5 159 37 3 c32 3 38 0 43 -20 3 -13 4
-129 3 -258 l-3 -235 -40 -3 -40 -2 -95 164 -95 165 -3 -165 -2 -164 -40 0
-40 0 0 253 c0 140 3 257 7 260 3 4 20 7 38 7 29 0 35 -7 125 -162z m1796 134
c52 -27 68 -63 62 -142 -4 -51 -9 -66 -35 -91 -36 -37 -95 -53 -140 -38 -43
14 -42 35 2 43 47 9 75 47 75 102 0 59 -25 84 -85 84 l-45 0 0 -225 0 -225
-50 0 -50 0 0 254 c0 234 1 255 18 260 9 2 60 4 112 2 74 -2 104 -7 136 -24z
m-514 -49 c3 -35 6 -38 38 -43 23 -3 36 -11 38 -22 3 -15 -4 -18 -37 -18 l-41
0 0 -145 c0 -134 2 -147 21 -166 20 -20 20 -22 3 -40 -21 -23 -71 -25 -96 -2
-16 14 -18 34 -18 185 l0 168 -30 0 c-40 0 -38 21 4 44 19 10 47 31 62 47 37
39 52 37 56 -8z m-210 -55 c37 -26 52 -83 36 -134 -16 -47 -61 -71 -146 -80
l-63 -7 7 -31 c15 -75 62 -102 120 -71 18 10 35 24 38 31 3 8 12 14 21 14 10
0 15 -10 15 -34 0 -26 -7 -41 -30 -60 -58 -49 -146 -46 -205 5 -113 100 -68
358 68 387 54 11 105 4 139 -20z m1078 12 c8 -5 24 -18 35 -30 18 -20 20 -39
23 -169 2 -85 8 -156 14 -169 10 -19 9 -25 -2 -32 -22 -14 -66 -12 -79 4 -10
11 -17 11 -49 -6 -43 -23 -107 -20 -148 7 -34 22 -57 78 -48 119 13 62 62 94
160 103 l66 6 -6 55 c-8 69 -10 72 -50 72 -41 0 -56 -15 -56 -58 0 -32 -1 -33
-37 -30 -64 5 -80 78 -26 114 46 30 157 37 203 14z m428 -15 c32 -30 41 -80
42 -220 0 -66 4 -127 10 -135 25 -40 -66 -58 -94 -18 -13 18 -16 52 -16 160 0
125 -2 140 -20 158 -25 25 -41 25 -69 3 -27 -22 -41 -105 -41 -240 l0 -93 -45
0 -45 0 0 200 c0 110 4 200 9 200 5 0 23 3 40 6 29 6 31 5 31 -21 l0 -28 24
22 c48 45 131 48 174 6z m1093 9 c39 -19 49 -62 49 -203 0 -88 4 -134 14 -153
10 -19 11 -29 3 -37 -16 -16 -72 -14 -86 3 -10 11 -17 11 -48 -5 -62 -32 -123
-22 -168 27 -33 35 -35 109 -4 147 23 30 101 57 161 57 38 0 38 0 38 39 0 67
-14 91 -54 91 -40 0 -59 -19 -54 -57 3 -24 -1 -28 -24 -31 -15 -2 -36 2 -48 8
-31 17 -24 76 12 103 49 36 149 41 209 11z m416 0 c32 -20 43 -74 43 -219 0
-86 4 -135 12 -143 18 -18 -9 -42 -47 -42 -54 0 -60 16 -63 182 -4 142 -5 149
-27 164 -32 21 -69 4 -84 -37 -6 -17 -11 -92 -11 -165 l0 -134 -50 0 -50 0 0
200 c0 110 4 200 9 200 5 0 22 3 38 6 26 5 31 2 36 -17 6 -22 7 -22 26 -5 40
36 120 41 168 10z m-3717 -178 c0 -118 4 -187 10 -191 20 -12 -11 -35 -46 -35
-59 0 -64 19 -64 227 l0 183 50 0 50 0 0 -184z m2430 -40 c0 -135 -4 -236 -11
-253 -19 -50 -48 -73 -95 -73 -56 0 -76 23 -37 42 45 21 52 60 52 296 l1 212
45 0 45 0 0 -224z m149 187 c5 -21 20 -89 32 -151 12 -63 25 -108 29 -100 4 7
19 75 35 151 l28 137 47 0 46 0 29 -142 c15 -79 31 -147 33 -153 3 -5 20 58
37 140 l31 150 42 3 c34 3 42 0 42 -14 0 -15 -36 -153 -86 -332 l-15 -53 -57
3 -57 3 -24 113 c-14 61 -27 112 -31 112 -3 0 -17 -52 -30 -115 l-23 -115 -57
0 -58 0 -46 185 c-25 101 -46 191 -46 200 0 11 11 15 45 15 43 0 45 -1 54 -37z
m1361 -133 c0 -110 4 -178 12 -195 14 -31 1 -45 -44 -45 -54 0 -58 14 -58 221
l0 189 45 0 45 0 0 -170z"/>
<path d="M2874 812 c-17 -11 -31 -43 -39 -91 l-7 -44 42 6 c52 7 80 31 80 69
0 56 -38 86 -76 60z"/>
<path d="M3956 619 c-55 -44 -18 -134 46 -110 29 11 34 20 43 85 l7 46 -35 0
c-20 0 -45 -9 -61 -21z"/>
<path d="M5466 619 c-40 -31 -31 -104 14 -109 50 -7 80 31 80 100 0 27 -3 30
-34 30 -19 0 -45 -9 -60 -21z"/>
</g>
</svg>
