<svg width="261" height="261" viewBox="0 0 261 261" fill="none" xmlns="http://www.w3.org/2000/svg">
<g filter="url(#filter0_d_301_8813)">
<rect x="40.724" y="36.8909" width="180" height="180" rx="32" fill="#1D1F23"/>
<rect x="41.224" y="37.3909" width="179" height="179" rx="31.5" stroke="black"/>
</g>
<path d="M179.566 117.694C179.295 117.479 176.763 115.567 171.424 115.567C170.014 115.573 168.607 115.694 167.217 115.929C166.183 108.846 160.327 105.392 160.065 105.237L158.631 104.411L157.688 105.771C156.507 107.599 155.645 109.614 155.139 111.731C154.183 115.774 154.764 119.572 156.818 122.818C154.338 124.201 150.359 124.541 149.554 124.571H83.6825C81.962 124.573 80.5658 125.964 80.5564 127.684C80.4796 133.455 81.4573 139.191 83.4414 144.61C85.7105 150.561 89.0864 154.945 93.4784 157.627C98.4001 160.641 106.396 162.364 115.46 162.364C119.555 162.377 123.642 162.006 127.667 161.257C133.263 160.23 138.648 158.274 143.599 155.47C147.678 153.107 151.35 150.102 154.471 146.57C159.69 140.662 162.799 134.082 165.111 128.235H166.033C171.747 128.235 175.26 125.949 177.198 124.033C178.486 122.811 179.491 121.322 180.143 119.671L180.552 118.474L179.566 117.694Z" fill="#2496ED"/>
<path d="M89.7883 122.642H98.6153C99.0411 122.642 99.3861 122.297 99.3861 121.871V114.009C99.3884 113.583 99.0453 113.236 98.6197 113.234C98.6183 113.234 98.6167 113.234 98.6153 113.234H89.7883C89.3626 113.234 89.0176 113.579 89.0176 114.004V114.009V121.871C89.0176 122.297 89.3626 122.642 89.7883 122.642Z" fill="#2496ED"/>
<path d="M101.952 122.642H110.779C111.205 122.642 111.55 122.297 111.55 121.871V114.009C111.553 113.583 111.209 113.236 110.784 113.234C110.782 113.234 110.781 113.234 110.779 113.234H101.952C101.524 113.234 101.177 113.58 101.177 114.009V121.871C101.18 122.298 101.526 122.642 101.952 122.642Z" fill="#2496ED"/>
<path d="M114.302 122.642H123.129C123.554 122.642 123.899 122.297 123.899 121.871V114.009C123.902 113.583 123.559 113.236 123.133 113.234C123.131 113.234 123.13 113.234 123.129 113.234H114.301C113.876 113.234 113.531 113.579 113.531 114.004V114.009V121.871C113.531 122.297 113.876 122.642 114.302 122.642Z" fill="#2496ED"/>
<path d="M126.505 122.642H135.332C135.758 122.642 136.104 122.298 136.107 121.871V114.009C136.107 113.58 135.76 113.234 135.332 113.234H126.505C126.079 113.234 125.734 113.579 125.734 114.004V114.009V121.871C125.734 122.297 126.079 122.642 126.505 122.642Z" fill="#2496ED"/>
<path d="M101.952 111.33H110.779C111.206 111.328 111.55 110.982 111.55 110.555V102.693C111.55 102.267 111.205 101.922 110.779 101.922H101.952C101.526 101.922 101.18 102.266 101.177 102.693V110.555C101.18 110.982 101.525 111.328 101.952 111.33Z" fill="#2496ED"/>
<path d="M114.302 111.33H123.129C123.555 111.328 123.899 110.982 123.899 110.555V102.693C123.899 102.267 123.554 101.922 123.129 101.922H114.302C113.876 101.922 113.531 102.267 113.531 102.693V110.555C113.531 110.982 113.875 111.328 114.302 111.33Z" fill="#2496ED"/>
<path d="M126.505 111.33H135.332C135.759 111.328 136.104 110.982 136.107 110.555V102.693C136.104 102.266 135.758 101.922 135.332 101.922H126.505C126.079 101.922 125.734 102.267 125.734 102.693V110.555C125.734 110.982 126.078 111.328 126.505 111.33Z" fill="#2496ED"/>
<path d="M126.505 100.015H135.332C135.758 100.015 136.104 99.6702 136.107 99.2439V91.3769C136.104 90.9505 135.758 90.6062 135.332 90.6062H126.505C126.079 90.6062 125.734 90.9512 125.734 91.3769V99.2438C125.734 99.6695 126.079 100.015 126.505 100.015Z" fill="#2496ED"/>
<path d="M138.815 122.642H147.642C148.069 122.642 148.415 122.298 148.417 121.871V114.009C148.417 113.58 148.07 113.234 147.642 113.234H138.815C138.39 113.234 138.044 113.579 138.044 114.004V114.009V121.871C138.044 122.297 138.39 122.642 138.815 122.642Z" fill="#2496ED"/>
<defs>
<filter id="filter0_d_301_8813" x="0.723999" y="0.890869" width="260" height="260" filterUnits="userSpaceOnUse" color-interpolation-filters="sRGB">
<feFlood flood-opacity="0" result="BackgroundImageFix"/>
<feColorMatrix in="SourceAlpha" type="matrix" values="0 0 0 0 0 0 0 0 0 0 0 0 0 0 0 0 0 0 127 0" result="hardAlpha"/>
<feOffset dy="4"/>
<feGaussianBlur stdDeviation="20"/>
<feComposite in2="hardAlpha" operator="out"/>
<feColorMatrix type="matrix" values="0 0 0 0 0.0367917 0 0 0 0 0.0348958 0 0 0 0 0.0484375 0 0 0 0.1 0"/>
<feBlend mode="normal" in2="BackgroundImageFix" result="effect1_dropShadow_301_8813"/>
<feBlend mode="normal" in="SourceGraphic" in2="effect1_dropShadow_301_8813" result="shape"/>
</filter>
</defs>
</svg>
