<svg width="261" height="261" viewBox="0 0 261 261" fill="none" xmlns="http://www.w3.org/2000/svg">
<g filter="url(#filter0_d_301_8891)">
<rect x="40.8656" y="36.1879" width="180" height="180" rx="32" fill="#1D1F23"/>
<rect x="41.3656" y="36.6879" width="179" height="179" rx="31.5" stroke="black"/>
</g>
<path d="M111.025 160.613C107.215 157.617 103.152 154.744 100.375 150.699C94.5315 143.565 90.0326 135.306 86.9566 126.626C85.0979 120.983 84.4613 114.932 82.0649 109.506C79.5581 105.565 82.4944 101.257 86.8112 100.005C88.7326 99.6361 92.112 97.8235 88.0332 99.1187C84.3766 101.802 84.0224 96.6836 87.7716 96.3593C90.3313 96.0192 91.2734 93.9241 90.3977 92.0382C87.6513 90.2465 97.0597 88.278 92.3254 85.6048C87.3939 80.2847 99.2239 79.2604 96.3049 85.3025C95.6065 89.9489 104.571 84.4508 102.491 89.817C104.605 92.3934 110.408 90.4029 110.264 94.0177C113.344 94.2296 114.401 96.8212 117.292 97.02C120.288 98.3733 125.719 99.4394 126.739 102.816C123.766 105.169 116.883 97.9543 116.552 104.469C117.45 114.093 117.222 124.006 120.743 133.17C122.408 138.719 126.445 143.087 130.091 147.41C133.58 151.642 138.306 154.622 143.122 157.131C147.347 159.124 151.902 160.445 156.506 161.274C158.374 159.846 161.671 154.535 164.585 156.774C164.723 159.291 158.802 162.035 164.306 161.756C167.538 160.782 169.78 164.256 172.441 161.122C174.893 164.027 182.633 159.266 180.888 165.203C178.529 166.725 175.088 165.805 172.725 167.899C168.829 165.953 165.727 169.64 161.414 169.174C156.624 170.032 151.751 170.378 146.895 170.386C138.928 169.756 130.792 169.491 123.213 166.717C118.944 165.477 114.777 163.045 111.025 160.613ZM117.753 163.529C121.922 165.331 125.999 167.232 130.568 167.805C137.817 168.813 145.302 170.364 152.577 168.949C149.285 167.462 145.881 169.528 142.601 167.886C138.667 168.733 134.445 167.671 130.446 167.148C125.898 165.121 120.99 163.728 116.73 161.099C111.409 159.155 119.483 163.592 120.92 163.951C124.247 165.84 117.262 162.983 116.277 162.198C113.491 160.635 113.135 160.962 116.001 162.549C116.578 162.887 117.148 163.241 117.753 163.529ZM109.82 157.922C113.86 159.418 109.802 155.082 107.951 155.333C107.131 153.91 104.818 153.011 106.449 152.247C103.514 153.266 103.374 148.372 101.994 149.071C98.8886 148.09 100.786 144.617 97.0864 142.483C96.7485 140.235 93.4109 138.286 92.3469 134.895C91.8761 133.159 88.5752 128.174 90.6033 132.813C92.3296 137.28 95.3669 141.105 97.8946 144.925C99.8574 148.562 102.175 152.363 105.75 154.633C106.955 155.789 108.119 157.56 109.82 157.922ZM98.1818 145.144C98.3231 144.534 98.9205 146.465 98.1818 145.144V145.144ZM114.658 159.716C113.372 159.211 115.553 159.315 114.658 159.716V159.716ZM116.851 160.516C115.85 161.134 116.624 159.412 116.851 160.516V160.516ZM119.597 161.661C117.582 160.876 120.903 160.416 119.597 161.661V161.661ZM124.301 164.283C121.76 163.84 125.096 163.11 124.301 164.283V164.283ZM115.267 157.985C112.645 157.967 117.297 156.672 115.267 157.985V157.985ZM117.326 159.012C116.592 159.323 117.269 158.318 117.326 159.012V159.012ZM127.618 165.436C129.273 166.481 137.28 167.725 132.266 165.864C131.427 166.041 122.969 163.472 127.618 165.436ZM111.279 152.71C108.71 151.941 111.118 152.015 111.279 152.71V152.71ZM116.071 155.503C113.482 154.832 117.317 154.633 116.071 155.503V155.503ZM120.101 157.974C117.197 157.297 121.89 157.299 120.101 157.974V157.974ZM109.33 150.587C111.27 152.076 117.159 150.778 112.303 149.698C110.092 148.52 105.11 147.713 108.506 150.409L109.329 150.587L109.33 150.587ZM122.83 158.827C119.439 158.04 123.639 157.449 122.83 158.827V158.827ZM118.728 155.567C123.475 156.91 114.736 152.564 117.556 155.073L118.181 155.355L118.728 155.567ZM126.953 160.321C122.892 159.701 131.449 160.364 126.953 160.321V160.321ZM107.599 147.985C106.49 148.056 107.423 147.148 107.599 147.985V147.985ZM134.559 164.587C133.092 165.713 134.679 163.074 134.559 164.587V164.587ZM115.272 152.684C113.867 152.651 115 151.887 115.272 152.684V152.684ZM108.025 147.46C104.492 146.322 110.607 147.305 108.025 147.46V147.46ZM99.441 141.911C96.6323 139.687 99.1198 140.674 99.441 141.911V141.911ZM121.977 156.213C121.504 155.674 121.755 156.331 121.977 156.213V156.213ZM136.004 164.821C135.241 165.132 135.959 163.997 136.004 164.821V164.821ZM120.736 154.931C118.535 154.61 120.989 153.869 120.736 154.931V154.931ZM110.286 148.308C107.21 147.01 112.206 148.103 110.286 148.308V148.308ZM127.963 159.292C125.046 158.714 130.955 158.107 127.963 159.292V159.292ZM118.768 153.051C122.217 153.496 114.664 150.705 118.011 152.801L118.768 153.051ZM130.755 160.421C133.975 158.496 132.913 164.929 136.218 160.965C139.477 158.585 133.403 163.907 137.42 161.389C140.325 159.446 144.617 162.31 147.327 163.245C149.277 163.149 151.172 164.931 153.171 163.847C157.018 162.811 145.647 162.31 148.628 160.471C145.107 161.496 142.507 159.25 140.775 156.995C136.826 156.083 132.26 154.065 130.29 150.57C129.486 149.258 131.451 150.755 129.596 148.61C127.217 146.494 126.028 144.092 124.432 141.519C122.523 140.501 122.301 137.505 122.108 141.419C122.124 138.949 119.804 137.286 119.239 137.978C119.228 135.598 121.72 136.791 119.976 135.031C119.6 132.565 118.365 129.996 117.993 127.213C117.415 125.871 117.911 122.997 116.022 126.035C115.334 129.245 115.794 122.09 116.864 124.45C118.269 122.042 116.359 122.325 116.281 122.659C117.197 120.628 116.861 117.746 116.042 118.845C116.53 116.692 116.813 110.921 115.313 111.944C116.222 109.692 117.037 101.641 113.089 104.711C111.49 104.733 108.719 105.292 107.41 105.943C111.516 108.206 106.997 106.761 105.325 106.401C105.107 108.495 103.452 107.589 101.383 107.61C104.687 108.019 99.7748 110.989 97.8795 109.835C95.4182 111.011 100.003 113.948 97.9286 114.855C98.1834 116.224 94.158 114.362 94.4739 117.522C92.0843 116.517 94.1449 121.272 95.3402 119.664C99.4049 120.764 98.2017 123.271 98.3048 125.654C97.643 127.042 95.0352 122.391 97.7241 122.607C95.6034 119.161 95.3779 121.361 93.6155 122.962C93.2053 123.078 98.1112 125.239 95.0326 126.308C97.7414 126.726 97.8183 129.096 98.3702 130.596C99.9976 132.292 99.6649 128.723 101.612 130.762C100.38 128.946 95.0834 125.646 99.3474 126.705C99.3249 124.877 98.5763 123.404 99.883 123.44C101.177 121.096 98.5282 129.217 101.445 126.239C102.252 125.887 102.452 123.893 103.903 126.427C106.01 128.501 104.664 130.004 101.691 128.105C102.223 129.909 105.668 130.554 105.021 133.376C105.708 135.858 106.667 134.944 107.504 134.8C108.162 137.212 108.534 135.438 108.565 134.291C111.572 134.935 110.868 136.712 111.809 137.953C113.88 138.889 108.843 131.615 112.4 135.767C116.142 139.145 113.803 140.556 110.445 140.015C112.57 139.842 113.256 142.888 115.915 142.781C118.339 143.934 119.98 148.364 115.802 146.52C114.353 145.213 109.223 143.601 113.413 146.087C117.282 147.878 120.355 148.951 124.086 151.2C126.758 153.106 127.911 155.29 128.923 155.722C126.679 156.794 122.159 154.866 125.515 154.275C123.422 153.894 121.068 152.835 123.072 155.444C124.778 156.867 129.113 156.716 129.891 156.877C129.231 158.329 128.101 158.444 129.917 158.557C127.891 159.637 130.567 159.804 130.755 160.421ZM126.611 148.719C125.378 147.43 125.06 145.015 126.392 147.116C127.076 147.391 128.582 151.062 126.611 148.719ZM140.106 157.291C140.129 157.876 140.875 157.242 140.106 157.291V157.291ZM124.664 145.558C124.617 143.608 125.11 147.061 124.664 145.558V145.558ZM123.323 143.753C121.772 140.756 125.278 144.601 123.323 143.753V143.753ZM107.069 132.534C107.517 134.093 107.979 132.292 107.069 132.534V132.534ZM120.005 139.546C120.564 137.445 120.662 141.309 120.005 139.546V139.546ZM110.866 133.191C110.222 132.032 112.213 134.279 110.866 133.191V133.191ZM118.709 135.706C117.24 132.414 119.749 133.908 119.034 136.245L118.709 135.706ZM105.183 126.686C104.526 125.606 103.44 122.437 103.79 121.47C104.106 123.045 107.14 128.25 105.278 123.626C103.22 119.75 107.737 124.884 108.202 125.85C108.418 126.812 106.933 125.588 107.939 127.843C106.103 125.276 106.855 129.261 105.183 126.686ZM101.004 123.806C101.175 121.295 101.96 125.527 101.004 123.806V123.806ZM102.884 124.453C103.781 122.557 104.405 127.094 102.884 124.453V124.453ZM98.3602 120.953C96.8039 119.407 95.6782 117.982 98.4335 119.994C99.4954 120.035 96.0742 116.752 98.6887 118.951C101.438 119.453 100.046 123.459 98.3602 120.953ZM100.736 120.892C101.216 121.773 101.64 119.996 100.736 120.892V120.892ZM102.198 121.36C100.828 118.792 103.861 122.437 102.198 121.36V121.36ZM99.2919 118.583C94.7679 114.557 104.977 120.688 100.031 119.329L99.2919 118.583ZM112.255 126.115C110.297 124.941 111.736 117.85 112.404 122.7C114.307 122.084 112.298 125.204 113.718 125.175C113.494 127.144 112.859 127.851 112.254 126.115H112.255ZM117.049 128.948C117.241 126.811 117.453 130.409 117.049 128.948V128.948ZM116.217 128.126C116.239 129.2 116.432 127.213 116.217 128.126V128.126ZM100.18 117.26C97.2732 113.25 108.627 121.317 102.041 118.277C101.353 118.097 100.525 118.033 100.18 117.26ZM109.412 122.155C109.137 118.778 110.026 122.715 109.412 122.155V122.155ZM116.422 126.652C116.462 127.924 116.965 124.728 116.422 126.652V126.652ZM100.625 115.729C102.352 115.36 107.784 118.763 102.796 116.702C102.241 116.088 101.06 116.367 100.625 115.729ZM115.459 123.123C115.643 119.671 116.49 121.061 115.465 123.618L115.459 123.123ZM101.91 114.528C102.614 113.496 100.042 109.861 102.281 113.224C103.249 113.993 105.082 114.512 103.463 114.836C106.01 117.082 102.842 115.444 101.91 114.528ZM114.725 122.045C115.154 124.349 115.212 118.112 114.725 122.045V122.045ZM100.441 110.895C100.725 111.612 100.978 110.665 100.441 110.895V110.895ZM103.783 112.885C104.643 111.08 105.37 114.898 103.783 112.885V112.885ZM113.212 118.13C113.203 117.437 113.39 119.138 113.212 118.13V118.13ZM112.666 116.921C111.357 113.692 113.883 118.63 112.666 116.921V116.921ZM111.862 114.804C111.642 113.47 112.609 116.48 111.862 114.804V114.804ZM113.17 112.678C112.272 111.096 114.304 105.705 114.531 109.048C113.583 111.653 114.257 113.111 114.918 109.616C116.14 106.866 114.655 115.043 113.17 112.678ZM114.514 104.66C114.601 105.24 114.905 104.18 114.514 104.66V104.66ZM112.27 148.883C111.737 148.418 112.337 149.178 112.27 148.883V148.883ZM116.892 151.221C119.464 151.881 119.451 150.821 117.127 150.506C115.877 149.343 111.932 148.109 115.463 150.362C115.697 150.954 116.436 150.941 116.892 151.221ZM107.762 145.156C109.179 146.213 113.098 148.151 109.78 145.559C110.899 144.259 107.639 143.567 108.72 142.698C105.97 141.014 106.55 141.164 108.477 141.217C105.171 139.739 108.955 139.85 108.777 139.093C107.502 138.841 102.445 136.845 105.42 139.257C102.396 137.715 104.699 139.831 103.786 139.607C100.693 138.764 106.539 141.963 103.294 141.169C105.068 142.575 108.07 144.77 104.045 142.656C103.514 143.42 106.925 144.577 107.762 145.156ZM112.597 147.934C109.715 145.62 118.477 149.829 112.597 147.934V147.934ZM137.35 162.93C136.546 163.925 137.426 161.763 137.35 162.93V162.93ZM139.894 164C141.25 162.686 139.949 166.094 142.142 163.679C142.165 161.949 142.074 160.928 139.622 163.028C138.946 163.403 138.644 164.997 139.894 164ZM99.5095 138.638C96.5894 137.009 99.0926 137.001 99.5095 138.638V138.638ZM102.226 140.418C98.627 138.904 101.217 138.745 102.226 140.418V140.418ZM117.681 149.738C119.19 151.079 124.611 150.722 119.513 149.904C118.758 148.787 114.719 149.056 117.681 149.738ZM138.926 162.859C136.677 163.729 141.249 160.911 138.926 162.859V162.859ZM143.756 166.179C142.755 166.452 143.771 165.553 143.756 166.179V166.179ZM143.763 165.303C141.272 165.464 146.335 162.578 143.763 165.303V165.303ZM92.8282 133.044C90.6363 129.917 91.4654 128.511 89.352 125.958C88.9518 124.005 85.7257 119.573 87.6832 124.268C89.4765 127.014 90.0091 131.265 92.8282 133.044ZM142.957 164.437C141.015 163.105 147.689 161.379 142.957 164.437V164.437ZM146.569 165.852C145.071 165.426 148.939 163.817 146.569 165.852V165.852ZM98.7044 135.181C96.9535 135.052 99.3824 134.172 98.7044 135.181V135.181ZM145.815 164.886C148.109 163.407 145.287 163.634 145.399 165.022L145.815 164.886ZM114.682 145.262C113.47 145.347 114.603 144.263 114.682 145.262V145.262ZM116.606 146.37C115.666 146.564 115.994 145.133 116.606 146.37V146.37ZM149.496 165.885C152.435 163.765 147.715 165.479 148.879 166.287L149.496 165.885ZM148.371 165.341C145.843 166.231 150.765 163.335 148.371 165.341V165.341ZM154.12 169.17C152.168 168.822 155.728 168.094 154.12 169.17V169.17ZM100.178 134.454C102.333 134.937 108.789 139.76 104.98 134.788C103.029 134.21 104.199 129.441 102.21 130.286C103.545 132.517 103.308 133.466 100.505 132.059C96.9802 130.339 98.524 132.912 99.2124 133.621C98.2744 133.834 100.454 134.436 100.178 134.454ZM90.3616 126.701C90.7472 125.105 86.8096 117.922 88.5019 123.101C89.1129 124.186 89.0512 126.242 90.3616 126.701ZM108.38 137.809C107.27 136.881 108.327 137.678 108.38 137.809V137.809ZM111.112 138.445C108.092 137.758 111.11 136.755 111.112 138.445V138.445ZM134.789 153.372C133.004 153.344 134.338 152.216 134.789 153.372V153.372ZM135.926 154.202C135.27 154.327 135.759 153.556 135.926 154.202V154.202ZM145.311 160.113C144.185 160.028 146.214 159.447 145.311 160.113V160.113ZM95.2649 127.953C92.4991 127.24 97.8465 126.953 95.2649 127.953V127.953ZM132.705 151.541C131.059 151.955 132.676 149.869 132.705 151.541V151.541ZM94.2448 125.576C92.711 125.207 95.9031 125.016 94.2448 125.576V125.576ZM99.0586 127.907C98.5496 128.116 99.0283 127.358 99.0586 127.907V127.907ZM157.769 163.91C159.902 163.478 164.761 164.996 165.547 163.345C162.957 163.282 156.587 161.518 156.285 163.766L156.852 163.855L157.769 163.91ZM100.588 128.293C99.2678 128.23 100.625 126.6 100.588 128.293V128.293ZM87.9322 119.514C85.7461 119.025 87.3573 116.287 87.9322 119.514V119.514ZM90.9507 120.272C88.1881 119.34 90.9873 119.237 90.9507 120.272V120.272ZM92.6749 121.12C92.1764 120.715 92.2846 121.629 92.6749 121.12V121.12ZM103.527 128.081C102.318 127.733 104.038 127.612 103.527 128.081V128.081ZM91.5266 119.209C88.0306 118.844 91.2347 116.772 91.5266 119.209V119.209ZM85.3386 115.194C84.7354 115.618 85.2502 114.07 85.3386 115.194V115.194ZM86.2588 114.499C85.4688 114.669 86.1086 113.165 86.2588 114.499V114.499ZM91.3435 117.535C93.4941 116.69 87.4274 115.788 90.9041 117.375L91.3435 117.535ZM159.401 159.573C157.652 159.182 160.777 158.311 159.401 159.573V159.573ZM167.623 163.835C166.235 164.049 168.174 162.203 167.623 163.835V163.835ZM91.8646 114.87C90.1592 115.183 92.0906 113.291 91.8646 114.87V114.87ZM84.6287 110.022C84.24 107.794 84.2934 103.883 88.0107 105.205C83.0483 106.19 91.445 111.372 90.3847 107.281C92.4714 107.383 94.4666 106.048 93.3717 108.074C97.4829 107.62 100.333 104.055 104.304 104.555C107.397 104.145 110.779 103.835 114.113 102.59C116.854 102.392 119.492 99.4415 117.989 97.6922C114.252 97.3762 110.34 97.8439 106.209 98.6652C101.631 99.6162 97.4725 101.425 92.8543 102.2C88.3523 102.805 93.7593 103.867 92.4704 104.103C90.121 104.919 95.2717 105.468 92.1654 106.327C90.2471 105.963 88.2508 105.304 89.07 103.282C84.7574 103.842 80.9679 105.631 84.375 110.02L84.6287 110.022ZM95.0201 104.73C96.0313 101.005 100.437 107.795 96.6773 105.224C96.2285 104.888 95.4898 104.614 95.0201 104.73ZM95.2168 102.923C95.9926 103.533 96.6763 101.836 95.2168 102.923V102.923ZM97.0697 102.953C97.2015 101.239 101.312 103.86 97.7476 103.571L97.0697 102.953ZM99.6047 101.934C99.8705 102.896 100.531 100.852 99.6047 101.934V101.934ZM100.253 101.499C101.795 99.6476 108.982 100.317 103.721 101.319C102.311 100.257 101.231 101.945 100.253 101.499ZM109.633 100.054C109.398 94.9949 114.293 101.852 109.633 100.054V100.054ZM112.294 100.039C113.267 97.4897 116.07 99.0162 112.744 99.5268C112.817 99.7983 112.647 100.843 112.294 100.039ZM90.8147 113.561C87.7282 112.016 93.7222 111.78 90.8147 113.561V113.561ZM92.9647 114.158C90.7493 113.719 93.9838 113.074 92.9647 114.158V114.158ZM86.6302 109.662C84.6643 109.177 88.2911 108.386 86.6302 109.662V109.662ZM172.476 163.367C171.206 164.035 172.524 161.887 172.476 163.367V163.367ZM163.753 157.414C162.632 157.563 164.001 155.71 163.753 157.414V157.414ZM174.875 163.942C177.197 163.95 181.912 163.22 176.858 163.223C176.066 163.347 172.238 163.32 174.875 163.942ZM94.8553 113.113C96.7349 112.984 97.7963 111.04 94.4917 111.152C89.3703 110.621 99.0099 112.905 93.8347 112.252C93.1389 112.712 94.8155 113.241 94.8553 113.113ZM96.5105 113.951C95.9298 114.592 96.3143 112.744 96.5105 113.951V113.951ZM98.4743 108.714C97.3459 108.444 99.2903 107.703 98.4743 108.714V108.714ZM92.2229 98.265C95.5777 97.1235 100.166 95.8414 101.749 98.8268C100.137 96.8866 101.099 94.9766 102.621 97.8135C104.774 100.684 105.852 96.5078 104.452 95.5453C106.048 97.5279 107.863 98.4648 105.52 95.6708C108.066 92.609 100.423 96.0715 98.6867 96.037C97.8507 96.4116 90.0582 98.0238 92.2229 98.2655V98.265ZM94.1893 94.4995C96.1024 93.0557 100.806 95.3585 97.7879 93.0646C97.4924 92.8041 91.1782 94.804 94.1893 94.4995ZM101.164 94.7873C103.403 94.8448 100.198 91.7793 102.866 93.1687C102.429 91.7369 99.7601 91.4686 98.4554 90.8968C97.7178 92.2056 99.9573 94.805 101.164 94.7878V94.7873ZM95.4119 88.4564C94.0544 88.9889 96.1866 87.4065 95.4119 88.4564V88.4564ZM98.2629 89.1391C101.871 88.6604 97.3433 87.5854 97.5358 89.1004L98.2629 89.1391ZM92.9401 84.9734C90.3993 81.6568 97.7184 85.5306 95.1367 82.058C92.9642 80.3281 90.8764 84.0051 92.9396 84.9734H92.9401ZM125.547 102.536C126.712 100.47 120.735 99.7512 124.761 101.803C125.132 101.928 125.049 102.679 125.547 102.536Z" fill="white"/>
<defs>
<filter id="filter0_d_301_8891" x="0.865601" y="0.187866" width="260" height="260" filterUnits="userSpaceOnUse" color-interpolation-filters="sRGB">
<feFlood flood-opacity="0" result="BackgroundImageFix"/>
<feColorMatrix in="SourceAlpha" type="matrix" values="0 0 0 0 0 0 0 0 0 0 0 0 0 0 0 0 0 0 127 0" result="hardAlpha"/>
<feOffset dy="4"/>
<feGaussianBlur stdDeviation="20"/>
<feComposite in2="hardAlpha" operator="out"/>
<feColorMatrix type="matrix" values="0 0 0 0 0.0367917 0 0 0 0 0.0348958 0 0 0 0 0.0484375 0 0 0 0.1 0"/>
<feBlend mode="normal" in2="BackgroundImageFix" result="effect1_dropShadow_301_8891"/>
<feBlend mode="normal" in="SourceGraphic" in2="effect1_dropShadow_301_8891" result="shape"/>
</filter>
</defs>
</svg>
