<svg width="260" height="261" viewBox="0 0 260 261" fill="none" xmlns="http://www.w3.org/2000/svg">
<g filter="url(#filter0_d_301_8838)">
<rect x="40.0001" y="36.188" width="180" height="180" rx="32" fill="#1D1F23"/>
<rect x="40.5001" y="36.688" width="179" height="179" rx="31.5" stroke="black"/>
</g>
<path d="M80.2761 75.7822H180.276V175.782H80.2761V75.7822Z" fill="#6762A5"/>
<path d="M136.976 154.578V123.082C136.976 123.082 139.024 115.546 111.74 126.166C111.692 126.302 111.692 97.0382 111.692 97.0382L120.608 96.9822V115.73C120.608 115.73 145.568 105.898 145.568 123.186V154.578H136.976ZM142.056 108.33H132.6C136.004 104.17 139.084 97.0382 139.084 97.0382H148.86C148.864 97.0382 147.188 101.686 142.056 108.33ZM111.852 154.526V136.59L120.82 145.558L111.852 154.526Z" fill="white"/>
<defs>
<filter id="filter0_d_301_8838" x="0.00012207" y="0.187988" width="260" height="260" filterUnits="userSpaceOnUse" color-interpolation-filters="sRGB">
<feFlood flood-opacity="0" result="BackgroundImageFix"/>
<feColorMatrix in="SourceAlpha" type="matrix" values="0 0 0 0 0 0 0 0 0 0 0 0 0 0 0 0 0 0 127 0" result="hardAlpha"/>
<feOffset dy="4"/>
<feGaussianBlur stdDeviation="20"/>
<feComposite in2="hardAlpha" operator="out"/>
<feColorMatrix type="matrix" values="0 0 0 0 0.0367917 0 0 0 0 0.0348958 0 0 0 0 0.0484375 0 0 0 0.1 0"/>
<feBlend mode="normal" in2="BackgroundImageFix" result="effect1_dropShadow_301_8838"/>
<feBlend mode="normal" in="SourceGraphic" in2="effect1_dropShadow_301_8838" result="shape"/>
</filter>
</defs>
</svg>
