<svg width="261" height="261" viewBox="0 0 261 261" fill="none" xmlns="http://www.w3.org/2000/svg">
<g filter="url(#filter0_d_301_8816)">
<rect x="40.9329" y="36.2969" width="180" height="180" rx="32" fill="#1D1F23"/>
<rect x="41.4329" y="36.7969" width="179" height="179" rx="31.5" stroke="black"/>
</g>
<path d="M178.593 135.793C178.011 134.028 176.488 132.798 174.519 132.503C173.59 132.364 172.527 132.423 171.268 132.683C169.074 133.137 167.447 133.31 166.259 133.343C170.742 125.753 174.388 117.097 176.487 108.95C179.88 95.7748 178.067 89.7729 175.948 87.0581C170.339 79.8723 162.157 76.0121 152.286 75.894C147.021 75.8294 142.398 76.872 139.986 77.6217C137.741 77.2244 135.327 77.0026 132.794 76.9616C128.046 76.8856 123.85 77.9236 120.265 80.0569C118.281 79.3839 115.095 78.4352 111.417 77.8298C102.766 76.4056 95.7928 77.5153 90.6926 81.1283C84.5167 85.5028 81.6537 93.1033 82.1832 103.719C82.3514 107.089 84.2315 117.344 87.1918 127.069C88.8932 132.658 90.7074 137.3 92.5841 140.867C95.2456 145.924 98.0934 148.902 101.29 149.971C103.082 150.57 106.338 150.989 109.762 148.129C110.196 148.656 110.775 149.18 111.544 149.667C112.52 150.284 113.713 150.788 114.905 151.087C119.201 152.164 123.224 151.894 126.657 150.385C126.678 150.997 126.694 151.582 126.708 152.087C126.731 152.907 126.753 153.71 126.783 154.461C126.987 159.54 127.331 163.49 128.352 166.253C128.408 166.405 128.484 166.637 128.563 166.883C129.073 168.447 129.925 171.065 132.092 173.116C134.336 175.24 137.05 175.891 139.537 175.891C140.783 175.891 141.973 175.727 143.016 175.503C146.736 174.703 150.96 173.486 154.016 169.123C156.905 164.998 158.309 158.786 158.563 148.997C158.596 148.72 158.627 148.456 158.656 148.204L158.716 147.687L159.397 147.747L159.572 147.759C163.361 147.932 167.993 147.126 170.838 145.801C173.085 144.755 180.289 140.942 178.593 135.793Z" fill="black"/>
<path d="M172.116 136.795C160.852 139.125 160.077 135.3 160.077 135.3C171.97 117.604 176.942 95.1421 172.651 89.6445C160.947 74.6482 140.685 81.7406 140.347 81.9244L140.238 81.9442C138.013 81.4808 135.523 81.2051 132.723 81.1591C127.627 81.0756 123.761 82.499 120.827 84.73C120.827 84.73 84.6826 69.7986 86.3639 103.509C86.7214 110.68 96.6144 157.771 108.414 143.548C112.727 138.346 116.894 133.949 116.894 133.949C118.964 135.327 121.441 136.031 124.039 135.778L124.241 135.606C124.178 136.252 124.207 136.884 124.321 137.632C121.282 141.037 122.175 141.635 116.098 142.889C109.949 144.16 113.562 146.422 115.92 147.014C118.779 147.731 125.394 148.746 129.863 142.472L129.685 143.188C130.876 144.145 131.712 149.411 131.572 154.184C131.432 158.958 131.338 162.235 132.276 164.795C133.215 167.355 134.15 173.114 142.139 171.398C148.814 169.963 152.273 166.246 152.754 160.046C153.095 155.638 153.868 156.29 153.917 152.348L154.537 150.483C155.252 144.507 154.651 142.58 158.763 143.476L159.763 143.564C162.789 143.702 166.751 143.076 169.076 141.992C174.082 139.663 177.051 135.772 172.115 136.795H172.116Z" fill="#336791"/>
<path d="M122.942 106.716C121.927 106.574 121.008 106.705 120.543 107.058C120.282 107.257 120.201 107.487 120.179 107.645C120.12 108.065 120.414 108.529 120.594 108.768C121.104 109.446 121.848 109.912 122.585 110.014C122.692 110.029 122.799 110.036 122.904 110.036C124.133 110.036 125.251 109.076 125.349 108.368C125.472 107.481 124.188 106.89 122.942 106.716V106.716ZM156.569 106.744C156.472 106.048 155.238 105.85 154.067 106.013C152.898 106.177 151.764 106.706 151.858 107.403C151.934 107.945 152.91 108.87 154.065 108.87C154.163 108.87 154.262 108.864 154.361 108.85C155.132 108.743 155.698 108.252 155.967 107.969C156.376 107.537 156.613 107.056 156.569 106.744Z" fill="white"/>
<path d="M175.864 136.53C175.434 135.228 174.052 134.809 171.755 135.284C164.936 136.695 162.493 135.718 161.692 135.126C166.992 127.028 171.353 117.24 173.705 108.108C174.82 103.782 175.435 99.7647 175.485 96.49C175.541 92.896 174.931 90.2549 173.672 88.6415C168.596 82.1375 161.146 78.6486 152.127 78.5529C145.928 78.4831 140.69 80.074 139.674 80.5214C137.536 79.9882 135.205 79.6608 132.667 79.619C128.012 79.5435 123.989 80.6608 120.659 82.9385C119.212 82.3984 115.473 81.1113 110.9 80.3725C102.995 79.0964 96.7129 80.0634 92.23 83.248C86.8809 87.0483 84.4114 93.8413 84.8898 103.438C85.0508 106.667 86.8854 116.599 89.7806 126.111C93.5916 138.631 97.7344 145.718 102.093 147.176C102.603 147.347 103.191 147.466 103.84 147.466C105.43 147.466 107.38 146.748 109.408 144.302C111.882 141.327 114.441 138.423 117.082 135.595C118.795 136.517 120.678 137.032 122.603 137.084C122.607 137.134 122.611 137.185 122.616 137.235C122.285 137.631 121.96 138.033 121.643 138.441C120.309 140.139 120.031 140.493 115.737 141.379C114.516 141.632 111.272 142.302 111.224 144.583C111.172 147.074 115.059 148.121 115.502 148.231C117.045 148.619 118.531 148.81 119.949 148.81C123.397 148.81 126.431 147.673 128.856 145.475C128.781 154.357 129.15 163.109 130.214 165.775C131.085 167.959 133.213 173.294 139.934 173.293C140.92 173.293 142.006 173.178 143.2 172.921C150.215 171.414 153.261 168.304 154.439 161.45C155.07 157.787 156.152 149.04 156.661 144.348C157.735 144.684 159.118 144.838 160.613 144.838C163.731 144.838 167.329 144.173 169.585 143.123C172.119 141.943 176.693 139.046 175.864 136.53ZM159.159 104.824C159.135 106.209 158.945 107.467 158.744 108.78C158.527 110.191 158.303 111.651 158.246 113.423C158.191 115.147 158.405 116.939 158.613 118.673C159.032 122.175 159.463 125.78 157.796 129.337C157.519 128.845 157.273 128.337 157.058 127.815C156.85 127.311 156.401 126.502 155.777 125.382C153.354 121.024 147.678 110.817 150.584 106.652C151.449 105.413 153.646 104.138 159.159 104.824ZM152.476 81.3577C160.556 81.5366 166.948 84.5678 171.473 90.3666C174.944 94.8144 171.122 115.053 160.058 132.512C159.946 132.37 159.835 132.229 159.722 132.088L159.582 131.913C162.441 127.178 161.882 122.493 161.385 118.339C161.18 116.635 160.987 115.025 161.036 113.513C161.087 111.91 161.298 110.535 161.503 109.206C161.754 107.568 162.009 105.873 161.939 103.874C161.992 103.665 162.013 103.417 161.985 103.123C161.805 101.207 159.624 95.4726 155.177 90.2822C152.745 87.4432 149.198 84.2662 144.355 82.1234C146.438 81.6904 149.286 81.2867 152.476 81.3577ZM107.261 142.513C105.027 145.207 103.484 144.691 102.976 144.521C99.6698 143.415 95.833 136.407 92.4504 125.294C89.5234 115.679 87.813 106.009 87.6774 103.298C87.2502 94.7228 89.3231 88.7467 93.8389 85.5351C101.188 80.3091 113.271 83.4371 118.126 85.0236C118.057 85.0927 117.984 85.1572 117.915 85.2275C109.948 93.2959 110.137 107.081 110.156 107.924C110.155 108.249 110.183 108.709 110.22 109.342C110.357 111.661 110.612 115.976 109.931 120.863C109.297 125.404 110.693 129.849 113.76 133.058C114.075 133.387 114.406 133.7 114.751 133.995C113.386 135.461 110.419 138.703 107.261 142.513ZM115.775 131.122C113.304 128.535 112.181 124.938 112.695 121.251C113.415 116.088 113.149 111.592 113.006 109.177C112.986 108.839 112.968 108.543 112.958 108.309C114.122 107.274 119.516 104.376 123.363 105.26C125.118 105.663 126.187 106.862 126.632 108.923C128.933 119.597 126.936 124.045 125.332 127.62C125.001 128.357 124.689 129.053 124.422 129.773L124.215 130.33C123.692 131.737 123.205 133.046 122.903 134.289C120.275 134.281 117.719 133.155 115.775 131.121V131.122ZM116.179 145.516C115.411 145.324 114.721 144.99 114.316 144.713C114.655 144.553 115.256 144.336 116.3 144.12C121.352 143.078 122.132 142.342 123.836 140.173C124.226 139.675 124.669 139.112 125.282 138.425L125.283 138.424C126.196 137.399 126.614 137.573 127.371 137.888C127.985 138.142 128.583 138.914 128.826 139.763C128.94 140.165 129.069 140.926 128.648 141.518C125.089 146.515 119.903 146.451 116.179 145.516ZM142.615 170.184C136.435 171.512 134.247 168.35 132.806 164.736C131.875 162.402 131.417 151.88 131.742 140.259C131.746 140.104 131.724 139.955 131.682 139.815C131.644 139.537 131.586 139.263 131.509 138.994C131.027 137.303 129.851 135.888 128.44 135.302C127.879 135.069 126.85 134.642 125.614 134.959C125.878 133.87 126.335 132.64 126.831 131.308L127.039 130.747C127.273 130.116 127.567 129.461 127.877 128.769C129.556 125.028 131.856 119.905 129.36 108.332C128.425 103.997 125.304 101.88 120.572 102.372C117.735 102.666 115.139 103.814 113.845 104.472C113.566 104.613 113.312 104.75 113.074 104.883C113.435 100.515 114.8 92.3525 119.906 87.188C123.122 83.937 127.403 82.3312 132.62 82.4178C142.9 82.5864 149.491 87.8762 153.211 92.2845C156.417 96.0829 158.153 99.9094 158.846 101.973C153.636 101.442 150.093 102.473 148.297 105.048C144.389 110.649 150.434 121.521 153.34 126.745C153.873 127.703 154.333 128.531 154.477 128.882C155.423 131.182 156.648 132.717 157.542 133.837C157.817 134.18 158.083 134.513 158.285 134.804C156.707 135.261 153.873 136.314 154.131 141.583C153.923 144.226 152.441 156.602 151.689 160.975C150.695 166.752 148.576 168.903 142.615 170.185V170.184ZM168.41 140.585C166.796 141.335 164.096 141.899 161.531 142.02C158.698 142.153 157.256 141.702 156.916 141.424C156.757 138.141 157.976 137.798 159.265 137.435C159.468 137.378 159.666 137.322 159.857 137.255C159.975 137.352 160.105 137.448 160.248 137.542C162.525 139.049 166.586 139.212 172.32 138.025L172.383 138.013C171.609 138.738 170.286 139.711 168.41 140.585Z" fill="white"/>
<defs>
<filter id="filter0_d_301_8816" x="0.932861" y="0.296875" width="260" height="260" filterUnits="userSpaceOnUse" color-interpolation-filters="sRGB">
<feFlood flood-opacity="0" result="BackgroundImageFix"/>
<feColorMatrix in="SourceAlpha" type="matrix" values="0 0 0 0 0 0 0 0 0 0 0 0 0 0 0 0 0 0 127 0" result="hardAlpha"/>
<feOffset dy="4"/>
<feGaussianBlur stdDeviation="20"/>
<feComposite in2="hardAlpha" operator="out"/>
<feColorMatrix type="matrix" values="0 0 0 0 0.0367917 0 0 0 0 0.0348958 0 0 0 0 0.0484375 0 0 0 0.1 0"/>
<feBlend mode="normal" in2="BackgroundImageFix" result="effect1_dropShadow_301_8816"/>
<feBlend mode="normal" in="SourceGraphic" in2="effect1_dropShadow_301_8816" result="shape"/>
</filter>
</defs>
</svg>
