<svg width="261" height="261" viewBox="0 0 261 261" fill="none" xmlns="http://www.w3.org/2000/svg">
<g filter="url(#filter0_d_301_8808)">
<rect x="40.724" y="36.2969" width="180" height="180" rx="32" fill="#1D1F23"/>
<rect x="41.224" y="36.7969" width="179" height="179" rx="31.5" stroke="black"/>
</g>
<path d="M130.468 76.1511C105.082 76.1511 106.667 87.1601 106.667 87.1601L106.695 98.5658H130.921V101.99H97.073C97.073 101.99 80.8284 100.148 80.8284 125.762C80.8284 151.378 95.0071 150.469 95.0071 150.469H103.469V138.583C103.469 138.583 103.013 124.404 117.421 124.404H141.449C141.449 124.404 154.948 124.622 154.948 111.357V89.4246C154.948 89.4246 156.999 76.1511 130.468 76.1511ZM117.11 83.8212C117.683 83.8207 118.249 83.9331 118.778 84.1519C119.307 84.3707 119.788 84.6917 120.193 85.0965C120.598 85.5013 120.919 85.982 121.138 86.511C121.356 87.0399 121.469 87.6069 121.468 88.1794C121.469 88.7518 121.356 89.3188 121.138 89.8478C120.919 90.3768 120.598 90.8574 120.193 91.2622C119.788 91.667 119.307 91.988 118.778 92.2068C118.249 92.4257 117.683 92.538 117.11 92.5375C116.538 92.538 115.971 92.4257 115.442 92.2068C114.913 91.988 114.432 91.667 114.027 91.2622C113.622 90.8574 113.301 90.3768 113.083 89.8478C112.864 89.3188 112.751 88.7518 112.752 88.1794C112.751 87.6069 112.864 87.0399 113.083 86.511C113.301 85.982 113.622 85.5013 114.027 85.0965C114.432 84.6917 114.913 84.3707 115.442 84.1519C115.971 83.9331 116.538 83.8207 117.11 83.8212Z" fill="url(#paint0_linear_301_8808)"/>
<path d="M131.189 175.631C156.575 175.631 154.99 164.622 154.99 164.622L154.962 153.217H130.736V149.793H164.584C164.584 149.793 180.828 151.635 180.828 126.02C180.828 100.405 166.65 101.313 166.65 101.313H158.188V113.199C158.188 113.199 158.644 127.378 144.235 127.378H120.208C120.208 127.378 106.708 127.16 106.708 140.425V162.358C106.708 162.358 104.659 175.631 131.189 175.631H131.189ZM144.547 167.962C143.975 167.962 143.408 167.85 142.879 167.631C142.35 167.412 141.869 167.091 141.464 166.687C141.059 166.282 140.738 165.801 140.52 165.272C140.301 164.743 140.188 164.176 140.189 163.604C140.188 163.031 140.301 162.464 140.519 161.935C140.738 161.406 141.059 160.925 141.464 160.521C141.869 160.116 142.35 159.795 142.879 159.576C143.408 159.357 143.975 159.245 144.547 159.245C145.12 159.245 145.686 159.357 146.215 159.576C146.744 159.795 147.225 160.116 147.63 160.52C148.035 160.925 148.356 161.406 148.575 161.935C148.793 162.464 148.906 163.031 148.905 163.603C148.906 164.176 148.793 164.743 148.575 165.272C148.356 165.801 148.035 166.281 147.63 166.686C147.225 167.091 146.744 167.412 146.215 167.631C145.686 167.85 145.12 167.962 144.547 167.961V167.962Z" fill="url(#paint1_linear_301_8808)"/>
<defs>
<filter id="filter0_d_301_8808" x="0.723999" y="0.296875" width="260" height="260" filterUnits="userSpaceOnUse" color-interpolation-filters="sRGB">
<feFlood flood-opacity="0" result="BackgroundImageFix"/>
<feColorMatrix in="SourceAlpha" type="matrix" values="0 0 0 0 0 0 0 0 0 0 0 0 0 0 0 0 0 0 127 0" result="hardAlpha"/>
<feOffset dy="4"/>
<feGaussianBlur stdDeviation="20"/>
<feComposite in2="hardAlpha" operator="out"/>
<feColorMatrix type="matrix" values="0 0 0 0 0.0367917 0 0 0 0 0.0348958 0 0 0 0 0.0484375 0 0 0 0.1 0"/>
<feBlend mode="normal" in2="BackgroundImageFix" result="effect1_dropShadow_301_8808"/>
<feBlend mode="normal" in="SourceGraphic" in2="effect1_dropShadow_301_8808" result="shape"/>
</filter>
<linearGradient id="paint0_linear_301_8808" x1="90.4383" y1="85.0987" x2="139.995" y2="134.161" gradientUnits="userSpaceOnUse">
<stop stop-color="#387EB8"/>
<stop offset="1" stop-color="#366994"/>
</linearGradient>
<linearGradient id="paint1_linear_301_8808" x1="120.856" y1="116.604" x2="174.075" y2="166.913" gradientUnits="userSpaceOnUse">
<stop stop-color="#FFE052"/>
<stop offset="1" stop-color="#FFC331"/>
</linearGradient>
</defs>
</svg>
