<svg width="261" height="261" viewBox="0 0 261 261" fill="none" xmlns="http://www.w3.org/2000/svg">
<g filter="url(#filter0_d_307_1353)">
<rect x="40.724" y="36.8418" width="180" height="180" rx="32" fill="#1D1F23"/>
<rect x="41.224" y="37.3418" width="179" height="179" rx="31.5" stroke="black"/>
</g>
<path d="M172.059 82.2319C170.622 85.7246 168.764 88.821 166.708 91.5954C157.642 82.3558 144.959 76.485 130.963 76.485C103.467 76.485 81 98.8286 81 126.424C81 140.84 87.168 153.821 96.9526 162.986L98.8105 164.646C107.456 171.953 118.702 176.387 130.939 176.387C157.196 176.387 178.821 155.901 180.679 130.04C182.165 117.481 178.351 101.405 172.059 82.2319ZM104.186 163.407C102.749 165.265 100.074 165.463 98.216 164.026C96.3581 162.59 96.16 159.914 97.5967 158.056C99.0334 156.199 101.709 156 103.567 157.437C105.325 158.874 105.623 161.549 104.186 163.407ZM171.762 148.47C159.5 164.844 133.143 159.295 116.348 160.112C116.348 160.112 113.351 160.311 110.379 160.732C110.379 160.732 111.518 160.212 112.955 159.691C124.795 155.579 130.369 154.737 137.577 151.046C151.078 144.135 164.553 129 167.253 113.344C162.101 128.381 146.445 141.361 132.227 146.612C122.442 150.229 104.83 153.722 104.83 153.722L104.112 153.3C92.1718 147.43 91.7507 121.469 113.599 113.122C123.185 109.406 132.252 111.462 142.655 109.01C153.679 106.433 166.461 98.1845 171.588 87.3843C177.31 104.798 184.321 131.774 171.762 148.47Z" fill="#6CB52D"/>
<path d="M104.186 163.407C102.749 165.265 100.074 165.463 98.216 164.026C96.3581 162.59 96.16 159.914 97.5967 158.056C99.0334 156.199 101.709 156 103.567 157.437C105.325 158.874 105.623 161.549 104.186 163.407Z" fill="#6CB52D"/>
<defs>
<filter id="filter0_d_307_1353" x="0.723999" y="0.841797" width="260" height="260" filterUnits="userSpaceOnUse" color-interpolation-filters="sRGB">
<feFlood flood-opacity="0" result="BackgroundImageFix"/>
<feColorMatrix in="SourceAlpha" type="matrix" values="0 0 0 0 0 0 0 0 0 0 0 0 0 0 0 0 0 0 127 0" result="hardAlpha"/>
<feOffset dy="4"/>
<feGaussianBlur stdDeviation="20"/>
<feComposite in2="hardAlpha" operator="out"/>
<feColorMatrix type="matrix" values="0 0 0 0 0.0367917 0 0 0 0 0.0348958 0 0 0 0 0.0484375 0 0 0 0.1 0"/>
<feBlend mode="normal" in2="BackgroundImageFix" result="effect1_dropShadow_307_1353"/>
<feBlend mode="normal" in="SourceGraphic" in2="effect1_dropShadow_307_1353" result="shape"/>
</filter>
</defs>
</svg>
